<?xml version="1.0" encoding="utf-8"?>
<!-- Generator: Adobe Illustrator 25.1.0, SVG Export Plug-In . SVG Version: 6.00 Build 0)  -->
<svg version="1.1" xmlns="http://www.w3.org/2000/svg" xmlns:xlink="http://www.w3.org/1999/xlink" x="0px" y="0px"
	 viewBox="0 0 100 100" style="enable-background:new 0 0 100 100;" xml:space="preserve">
<style type="text/css">
	.st0{fill:#FEE62A;stroke:#666666;stroke-width:0.5;stroke-miterlimit:10;}
</style>
<g id="Layer_1">
</g>
<g id="Layer_2">
</g>
<g id="Layer_3">
	<path class="st0" d="M79.19,67.74c-0.24-1.47-0.42-3.49-0.23-5.84c0.69-8.21,5.51-13.84,5.54-13.83c0.02,0.01-3.76,4.36-4.88,11.37
		c-0.54,3.36-0.3,6.25,0.04,8.28c0.24,0.07,0.49,0.15,0.73,0.22c0.02-0.9,0.08-2.21,0.22-3.77c0.29-3.03,0.5-5.28,1.24-7.14
		c0.48-1.2,1.94-4.16,6.62-6.47c-5.35,3.51-6.41,7.01-6.69,8.21c-0.38,1.66-0.59,4.88-0.61,5.21c-0.11,1.74-0.11,3.18-0.09,4.18
		c0.32,0.64,0.7,0.92,1,1.07c0.59,0.28,1,0.09,1.52,0.48c0.38,0.29,0.53,0.68,0.59,0.82c0.23,0.62,0.12,1.33-0.21,1.82
		c-0.31,0.46-0.65,0.5-1.69,1.06c0,0-0.82,0.44-1.66,1.01c-1.01,0.69-2.5,1.7-2.66,3.19c-0.02,0.21-0.1,0.88,0.32,1.48
		c0.42,0.59,1.1,0.78,1.15,0.79c0.54,0.14,0.95-0.02,1.01,0.13c0.05,0.12-0.2,0.36-0.45,0.47c-0.48,0.21-1.01-0.04-1.28-0.17
		c-0.13-0.06-0.45-0.23-0.81-0.6c-0.52-0.53-0.78-1.13-0.92-1.58c-0.43,0.55-0.85,1.1-1.28,1.66c0.28,1.38,0.77,1.88,1.22,2.06
		c0.45,0.18,1.04,0.1,1.07,0.28c0.02,0.13-0.27,0.31-0.46,0.38c-0.98,0.32-2.34-1.36-2.62-1.7c-0.33,0.19-0.65,0.39-0.98,0.58
		c-0.06,0.42-0.09,1.05,0.27,1.56c0.64,0.91,2.07,0.78,2.07,1.07c0,0.23-0.86,0.56-1.67,0.38c-1.07-0.23-1.57-1.25-1.65-1.41
		c-0.64,0.32-1.47,0.88-1.92,1.82c-0.25,0.52-0.15,0.67-0.35,1.38c-0.44,1.6-1.45,2.74-2.13,3.51c-0.68,0.77-0.99,0.92-1.49,1.7
		c-0.43,0.67-0.62,1.2-0.74,1.52c-0.74,1.82-2.36,3.55-4.12,4.47c-0.86,0.45-2.14,1.11-2.95,0.59c-1.11-0.72-0.61-3.19-0.48-3.8
		c0.32-1.53,0.98-2.52,2.13-4.2c1.32-1.92,1.27-1.32,3.83-4.47c0.82-1.01,1.4-1.77,2.47-2.13c0.52-0.17,0.84-0.14,1.2-0.45
		c0.88-0.76,0.85-2.58,0.29-2.85c-0.4-0.19-0.94,0.49-2.18,1.57c-1.25,1.09-2.52,1.91-5.05,3.54c-2.41,1.55-3.62,2.32-4.66,2.63
		c-3.14,0.94-5.51,0.05-6.68,1.65c-0.34,0.47-0.58,1.14-1.28,1.36c-0.76,0.23-1.64-0.21-1.76-0.27c-0.63-0.32-0.66-0.62-1.01-0.67
		c-0.7-0.08-1.33,1.07-1.84,1.84c0,0-1.02,1.53-3.54,3.35c-1.65,1.19-5.03,2.78-7.1,1.54c-1.67-1-1.13-3.03-2.85-3.72
		c-1.65-0.66-3.13,0.81-3.99,0.03c-0.71-0.66,0.2-1.78-0.48-3.62c-0.11-0.3-0.75-1.91-2.26-2.53c-1.28-0.52-2.54-0.08-3.72,0.35
		c-2.07,0.74-2.26,1.58-4.28,2.21c-1.17,0.36-2.41,0.76-3.33,0.13c-1.29-0.88-1.42-3.48-0.27-4.95c0.73-0.93,1.82-1.19,2.05-1.25
		c0.93-0.23,1.2,0.09,3.38,0.27c0.75,0.06,1.54,0.12,2.58,0.05c1.03-0.07,1.06-0.18,2.26-0.29c1.9-0.18,2.04,0.09,2.77-0.19
		c1.43-0.55,2.06-2.04,2.13-2.21c0.51-1.26,0.25-2.6,0.08-3.48c-0.21-1.1-0.47-1.3-0.29-1.76c0.44-1.12,2.55-1.32,3.14-1.38
		c1.7-0.17,2.19,0.35,2.66-0.08c0.59-0.54,0.02-1.57,0.16-4.47c0.06-1.28,0.2-1.6,0.45-1.81c0.38-0.32,0.85-0.23,2.94-0.1
		c0.99,0.06,1.49,0.09,1.55,0.08c1.44-0.3,2.94-1.9,3.41-3.22c0.07-0.2,0.23-0.7,0.69-0.96c0.35-0.2,0.71-0.16,0.84-0.15
		c1.99,0.17,8.56,0.03,10.49-0.06c0.38-0.02,1.04-0.05,1.86-0.13c-0.93-0.88-2.48-2.24-4.58-3.67c-2.92-2-3.93-2.1-4.79-3.54
		c-0.45-0.75-0.62-1.47-0.61-6.68c0-2.76,0-4.14,0.07-5.3c0.18-3.4,0.53-5.71,1.25-10.52c1.2-7.97,1.79-11.96,1.8-12.02
		c0.35-4.59,0.04-6.21,1.31-8.85c0.65-1.35,2.1-4.36,5.12-5.12c3-0.76,5.69,1.17,6.91,2.05c0.9,0.65,2.47,1.96,4.68,6.16
		c2.18,4.13,3.21,7.72,3.71,9.6c0.93,3.53,0.64,3.64,2.32,14.73c0.81,5.31,1.13,6.96,1.51,10.62c0.33,3.16,0.54,6.33,0.6,7.27
		c0.2,3.06,0.3,4.58,0.29,5.37c-0.04,2.19,0.4,4.39,0.2,6.58c-0.03,0.38-0.12,1.22,0.36,1.6c0.4,0.31,1.11,0.25,1.51-0.09
		c0.34-0.29,0.38-0.73,0.42-0.97C77.79,69.9,78.13,68.94,79.19,67.74z"/>
</g>
<g id="Layer_4">
</g>
</svg>
